<?xml version="1.0" encoding="UTF-8" standalone="no"?>
<svg
   xmlns:dc="http://purl.org/dc/elements/1.1/"
   xmlns:cc="http://creativecommons.org/ns#"
   xmlns:rdf="http://www.w3.org/1999/02/22-rdf-syntax-ns#"
   xmlns:svg="http://www.w3.org/2000/svg"
   xmlns="http://www.w3.org/2000/svg"
   xmlns:sodipodi="http://sodipodi.sourceforge.net/DTD/sodipodi-0.dtd"
   xmlns:inkscape="http://www.inkscape.org/namespaces/inkscape"
   viewBox="0 0 162.76 152.59"
   version="1.1"
   id="svg24"
   sodipodi:docname="icon.svg"
   inkscape:version="1.0.1 (c497b03c, 2020-09-10)">
  <metadata
     id="metadata28">
    <rdf:RDF>
      <cc:Work
         rdf:about="">
        <dc:format>image/svg+xml</dc:format>
        <dc:type
           rdf:resource="http://purl.org/dc/dcmitype/StillImage" />
      </cc:Work>
    </rdf:RDF>
  </metadata>
  <sodipodi:namedview
     pagecolor="#ffffff"
     bordercolor="#666666"
     borderopacity="1"
     objecttolerance="10"
     gridtolerance="10"
     guidetolerance="10"
     inkscape:pageopacity="0"
     inkscape:pageshadow="2"
     inkscape:window-width="2316"
     inkscape:window-height="1180"
     id="namedview26"
     showgrid="false"
     inkscape:zoom="6.4696486"
     inkscape:cx="81.38"
     inkscape:cy="63.929568"
     inkscape:window-x="0"
     inkscape:window-y="23"
     inkscape:window-maximized="0"
     inkscape:current-layer="svg24" />
  <defs
     id="defs12">
    <style
       id="style10">.cls-1{fill:#54565a;}</style>
  </defs>
  <title
     id="title14">vex_i_b</title>
  <g
     id="Layer_2"
     data-name="Layer 2">
    <g
       id="logo_isolated">
      <path
         class="cls-1"
         d="M162.67,67.54A71.22,71.22,0,0,0,91.55,0c-1.71,0-3.4.08-5.08.2a71.2,71.2,0,0,0-66.12,71H0a81.38,81.38,0,0,0,162.67,3.66q.09-1.82.09-3.66C162.76,70,162.72,68.76,162.67,67.54ZM81.38,142.42a71.21,71.21,0,0,1-70.47-61H30.52V71.21a61,61,0,0,1,122-3.14c.05,1,.08,2.08.08,3.14s0,2.1-.08,3.14a71.2,71.2,0,0,1-66,67.87C84.79,142.33,83.09,142.42,81.38,142.42Z"
         id="path16" />
      <circle
         class="cls-1"
         cx="81.38"
         cy="71.21"
         r="10.17"
         id="circle18" />
      <circle
         class="cls-1"
         cx="122.07"
         cy="71.21"
         r="10.17"
         id="circle20" />
    </g>
  </g>
  <path
     style="fill:#ffeeaa;stroke-width:0.154568"
     d="m 78.134074,142.26912 c -6.591057,-0.3603 -12.702095,-1.47435 -18.58339,-3.38776 C 36.809896,131.48291 19.43191,113.42489 12.920239,90.426191 12.294125,88.214804 11.332225,83.843722 11.128581,82.284506 l -0.105985,-0.811481 h 9.752282 9.752282 l 0.0022,-6.221358 c 0.0032,-9.012114 0.251635,-12.506214 1.244803,-17.504815 3.142485,-15.816048 12.464036,-29.752494 25.930325,-38.767851 8.144333,-5.452436 17.007023,-8.670787 27.385162,-9.9445064 2.968818,-0.364366 9.781396,-0.3628618 12.906419,0.00285 12.204141,1.4282114 23.179281,6.0795064 32.486641,13.7679324 2.3407,1.933556 6.49326,6.13817 8.32876,8.43318 7.46399,9.332527 11.9296,20.012858 13.28089,31.763703 0.54273,4.719583 0.47174,12.247805 -0.16226,17.205419 -3.28029,25.650661 -20.37033,47.618791 -44.4281,57.109441 -9.326893,3.6794 -19.933146,5.46786 -29.367906,4.9521 z m 6.442107,-61.341412 c 1.667403,-0.559729 2.875789,-1.325119 4.145794,-2.625942 1.907155,-1.953432 2.861726,-4.323335 2.857222,-7.093589 -0.0067,-4.126585 -2.209103,-7.566581 -5.94858,-9.291301 -1.487258,-0.685952 -2.529578,-0.908807 -4.250617,-0.908807 -1.78246,0 -2.782726,0.225172 -4.405185,0.991654 -2.861054,1.35162 -4.856646,3.824479 -5.582613,6.917754 -0.330605,1.408678 -0.22016,4.059692 0.226866,5.445424 1.131276,3.506837 4.324576,6.296749 7.955941,6.950919 1.364819,0.245865 3.64235,0.07003 5.001172,-0.386112 z m 40.469249,0.07585 c 1.65773,-0.506693 2.96001,-1.304431 4.2587,-2.60875 1.97297,-1.981512 2.94886,-4.335014 2.95802,-7.133665 0.006,-1.824909 -0.24448,-2.913311 -1.06147,-4.612946 -1.24216,-2.584128 -3.7016,-4.597776 -6.54167,-5.355939 -1.33818,-0.357231 -3.7725,-0.36597 -5.10074,-0.01831 -2.93331,0.76778 -5.30815,2.707137 -6.65889,5.437845 -2.13097,4.308012 -0.92835,9.655181 2.82025,12.539664 1.16439,0.895975 2.90194,1.712178 4.23817,1.990858 1.42698,0.297603 3.67854,0.191939 5.08763,-0.238756 z"
     id="path32" />
</svg>
