<svg xmlns="http://www.w3.org/2000/svg" viewBox="0 0 162.59 162.59"><defs><style>.cls-1{fill:#dbdbdb;}.cls-2{fill:#080808;}.cls-3{fill:none;}</style></defs><title>vex_icon_square</title><g id="Layer_2" data-name="Layer 2"><g id="logo_isolated"><path class="cls-1" d="M157.71,73.07A66.94,66.94,0,0,0,90.86,9.58c-1.61,0-3.2.08-4.78.19A66.93,66.93,0,0,0,23.92,76.52H4.8A76.49,76.49,0,0,0,157.71,80c.06-1.14.09-2.29.09-3.44S157.76,74.22,157.71,73.07Zm-9.55,6.4a66.93,66.93,0,0,1-62.08,63.8c-1.58.11-3.17.19-4.78.19A67,67,0,0,1,15.05,86.08H33.49V76.52a57.37,57.37,0,0,1,114.67-3c.05,1,.08,2,.08,3S148.21,78.49,148.16,79.47Z"/><circle class="cls-1" cx="81.3" cy="76.52" r="9.56"/><circle class="cls-1" cx="119.55" cy="76.52" r="9.56"/><path class="cls-2" d="M147.81,73.56a57.37,57.37,0,0,0-114.67,3v9.56H14.7A67,67,0,0,0,81,143.46c1.61,0,3.2-.08,4.78-.19a66.93,66.93,0,0,0,62.08-63.8c.05-1,.08-2,.08-3S147.86,74.54,147.81,73.56ZM81,86.08a9.56,9.56,0,1,1,9.56-9.56A9.56,9.56,0,0,1,81,86.08Zm38.25,0a9.56,9.56,0,1,1,9.56-9.56A9.56,9.56,0,0,1,119.2,86.08Z"/><rect class="cls-3" width="162.59" height="162.59"/></g></g></svg>