<?xml version="1.0" encoding="UTF-8" standalone="no"?>
<svg
   xmlns:dc="http://purl.org/dc/elements/1.1/"
   xmlns:cc="http://creativecommons.org/ns#"
   xmlns:rdf="http://www.w3.org/1999/02/22-rdf-syntax-ns#"
   xmlns:svg="http://www.w3.org/2000/svg"
   xmlns="http://www.w3.org/2000/svg"
   xmlns:sodipodi="http://sodipodi.sourceforge.net/DTD/sodipodi-0.dtd"
   xmlns:inkscape="http://www.inkscape.org/namespaces/inkscape"
   viewBox="0 0 245 245"
   version="1.1"
   id="svg102"
   sodipodi:docname="vex-square.svg"
   inkscape:version="0.92.5 (2060ec1f9f, 2020-04-08)">
  <metadata
     id="metadata106">
    <rdf:RDF>
      <cc:Work
         rdf:about="">
        <dc:format>image/svg+xml</dc:format>
        <dc:type
           rdf:resource="http://purl.org/dc/dcmitype/StillImage" />
      </cc:Work>
    </rdf:RDF>
  </metadata>
  <sodipodi:namedview
     pagecolor="#ffffff"
     bordercolor="#666666"
     borderopacity="1"
     objecttolerance="10"
     gridtolerance="10"
     guidetolerance="10"
     inkscape:pageopacity="0"
     inkscape:pageshadow="2"
     inkscape:window-width="1173"
     inkscape:window-height="807"
     id="namedview104"
     showgrid="false"
     inkscape:zoom="1.7013855"
     inkscape:cx="76.809442"
     inkscape:cy="103.958"
     inkscape:window-x="1160"
     inkscape:window-y="515"
     inkscape:window-maximized="0"
     inkscape:current-layer="svg102" />
  <defs
     id="defs88">
    <style
       id="style86">.cls-1{fill:none;}.cls-2{fill:#54565a;}</style>
  </defs>
  <title
     id="title90">Asset 6</title>
  <g
     id="Layer_2"
     data-name="Layer 2">
    <g
       id="logo_isolated">
      <rect
         class="cls-1"
         width="245"
         height="245"
         id="rect92" />
      <path
         class="cls-2"
         d="M238.84,110A101.92,101.92,0,0,0,137.06,13.31c-2.45,0-4.87.12-7.28.29A101.89,101.89,0,0,0,35.15,115.22H6a116.46,116.46,0,0,0,232.81,5.25c.09-1.74.13-3.49.13-5.25S238.92,111.72,238.84,110ZM122.5,217.13A101.92,101.92,0,0,1,21.64,129.78H49.71V115.22a87.35,87.35,0,0,1,174.59-4.49c.07,1.48.11,3,.11,4.49s0,3-.11,4.5a101.9,101.9,0,0,1-94.52,97.13C127.37,217,125,217.13,122.5,217.13Z"
         id="path94" />
      <circle
         class="cls-2"
         cx="122.5"
         cy="115.22"
         r="14.56"
         id="circle96" />
      <circle
         class="cls-2"
         cx="180.74"
         cy="115.22"
         r="14.56"
         id="circle98" />
    </g>
  </g>
  <path
     style="fill:#ffd5d5;stroke-width:0.29387814"
     d="M 116.19958,216.79568 C 87.494137,214.97242 60.994584,201.16081 42.929956,178.60744 32.959126,166.15903 26.062677,151.37519 22.80793,135.47208 c -0.553106,-2.70254 -1.005912,-5.07902 -1.006237,-5.28107 -4.64e-4,-0.28871 2.978552,-0.36734 13.9171,-0.36734 h 13.91769 l 0.166192,-10.50615 C 49.978467,108.20448 50.327475,104.0475 51.6211,97.6585 55.537308,78.317022 66.113729,60.69774 81.458365,47.952546 111.57706,22.936068 154.96959,21.171916 187.07199,43.658753 c 7.53042,5.274851 15.23427,12.881132 20.72318,20.460716 8.41062,11.614149 13.70967,24.982381 15.79338,39.842921 0.72694,5.18433 0.72804,17.37753 0.002,23.06944 -2.12388,16.65231 -7.50648,31.21784 -16.50734,44.66947 -17.076,25.51979 -44.54453,41.93627 -74.93093,44.78221 -4.88843,0.45784 -11.59356,0.58905 -15.95276,0.31217 z m 10.06493,-87.4225 c 2.52262,-0.65706 4.47122,-1.80424 6.55204,-3.8573 4.00802,-3.95458 5.36783,-9.94658 3.47484,-15.31189 -2.2551,-6.39164 -9.18285,-10.51583 -15.92771,-9.482 -5.6519,0.8663 -10.32792,4.98997 -11.98269,10.56722 -0.59824,2.01633 -0.60803,5.55194 -0.0216,7.80338 1.25565,4.82078 5.37993,8.9291 10.32974,10.28976 1.94823,0.53556 5.50055,0.53126 7.57538,-0.009 z m 58.14133,0.0121 c 4.7274,-1.23134 8.61201,-4.80374 10.18033,-9.36216 2.97381,-8.64352 -2.62108,-17.89855 -11.66874,-19.30235 -7.50434,-1.164336 -14.94875,3.98493 -16.4974,11.41118 -1.58684,7.60939 3.03329,15.17337 10.54873,17.27018 1.84052,0.5135 5.43216,0.50536 7.43708,-0.0168 z"
     id="path108"
     inkscape:connector-curvature="0" />
</svg>
