<svg xmlns="http://www.w3.org/2000/svg" viewBox="0 0 271.26 271.26"><defs><style>.cls-1{fill:#f2f1f0;}.cls-2{fill:#c8c8c8;}.cls-3{fill:none;}.cls-4{fill:#54565a;}</style></defs><title>vex_1</title><g id="Layer_2" data-name="Layer 2"><g id="logo_isolated"><circle class="cls-1" cx="135.63" cy="135.63" r="135.13"/><path class="cls-2" d="M135.63,1a134.63,134.63,0,0,1,95.2,229.83A134.63,134.63,0,0,1,40.43,40.43,133.75,133.75,0,0,1,135.63,1m0-1h0A135.63,135.63,0,0,0,0,135.63H0A135.63,135.63,0,0,0,135.63,271.26h0A135.63,135.63,0,0,0,271.26,135.63h0A135.63,135.63,0,0,0,135.63,0Z"/><rect class="cls-3" x="50.98" y="54.17" width="169.21" height="162.91"/><path class="cls-4" d="M216.92,126.88A71.22,71.22,0,0,0,145.8,59.33c-1.71,0-3.4.09-5.08.21a71.2,71.2,0,0,0-66.13,71H54.25a81.38,81.38,0,0,0,162.67,3.67c.06-1.22.09-2.44.09-3.67S217,128.09,216.92,126.88Zm-81.29,74.87a71.21,71.21,0,0,1-70.47-61H84.77V130.54a61,61,0,0,1,122-3.14c.05,1,.08,2.09.08,3.14s0,2.1-.08,3.14a71.2,71.2,0,0,1-66,67.87C139,201.67,137.34,201.75,135.63,201.75Z"/><circle class="cls-4" cx="135.63" cy="130.54" r="10.17"/><circle class="cls-4" cx="176.32" cy="130.54" r="10.17"/></g></g></svg>
